<svg width="1389" height="795" viewBox="0 0 1389 795" fill="none" xmlns="http://www.w3.org/2000/svg">
<line x1="874.496" y1="220.002" x2="1037.2" y2="57.2987" stroke="#68C3D4" stroke-opacity="0.35" stroke-width="8" stroke-linecap="round"/>
<line x1="878.404" y1="164.488" x2="1011.4" y2="31.4957" stroke="#68C3D4" stroke-opacity="0.35" stroke-width="8" stroke-linecap="round"/>
<line x1="841.869" y1="144.818" x2="858.618" y2="128.069" stroke="#68C3D4" stroke-opacity="0.35" stroke-width="8" stroke-linecap="round"/>
<line x1="882.312" y1="108.975" x2="985.594" y2="5.6926" stroke="#68C3D4" stroke-opacity="0.35" stroke-width="8" stroke-linecap="round"/>
<line x1="866.681" y1="773.691" x2="1027.97" y2="612.402" stroke="#68D480" stroke-opacity="0.35" stroke-width="10" stroke-linecap="round"/>
<line x1="870.589" y1="718.177" x2="1002.17" y2="586.599" stroke="#68D480" stroke-opacity="0.35" stroke-width="10" stroke-linecap="round"/>
<line x1="834.054" y1="698.507" x2="849.389" y2="683.172" stroke="#68D480" stroke-opacity="0.35" stroke-width="10" stroke-linecap="round"/>
<line x1="874.496" y1="662.663" x2="976.364" y2="560.796" stroke="#68D480" stroke-opacity="0.35" stroke-width="10" stroke-linecap="round"/>
<line x1="54.7637" y1="789.355" x2="218.174" y2="625.945" stroke="#68C3D4" stroke-opacity="0.2" stroke-width="7" stroke-linecap="round"/>
<line x1="58.6714" y1="733.841" x2="192.371" y2="600.142" stroke="#68C3D4" stroke-opacity="0.2" stroke-width="7" stroke-linecap="round"/>
<line x1="22.1366" y1="714.171" x2="39.5928" y2="696.715" stroke="#68C3D4" stroke-opacity="0.2" stroke-width="7" stroke-linecap="round"/>
<line x1="62.579" y1="678.328" x2="166.568" y2="574.339" stroke="#68C3D4" stroke-opacity="0.2" stroke-width="7" stroke-linecap="round"/>
<line x1="112.776" y1="234.792" x2="278.241" y2="69.3277" stroke="#68D480" stroke-opacity="0.5" stroke-width="10" stroke-linecap="round"/>
<line x1="116.872" y1="177.992" x2="251.889" y2="42.9754" stroke="#68D480" stroke-opacity="0.5" stroke-width="10" stroke-linecap="round"/>
<line x1="79.5297" y1="157.933" x2="95.4202" y2="142.043" stroke="#68D480" stroke-opacity="0.5" stroke-width="10" stroke-linecap="round"/>
<line x1="120.967" y1="121.193" x2="225.537" y2="16.6231" stroke="#68D480" stroke-opacity="0.5" stroke-width="10" stroke-linecap="round"/>
<line x1="10" y1="-10" x2="149.113" y2="-10" transform="matrix(0.707108 -0.707105 0.707107 0.707107 1276.41 238.204)" stroke="#68D480" stroke-opacity="0.65" stroke-width="20" stroke-linecap="round"/>
<line x1="1237.13" y1="194.945" x2="1340.58" y2="91.4969" stroke="#68D480" stroke-opacity="0.65" stroke-width="20" stroke-linecap="round"/>
<line x1="1212.27" y1="284.499" x2="1250.79" y2="245.982" stroke="#68D480" stroke-opacity="0.65" stroke-width="20" stroke-linecap="round"/>
<line x1="1247.72" y1="115.957" x2="1306.38" y2="57.2987" stroke="#68D480" stroke-opacity="0.65" stroke-width="20" stroke-linecap="round"/>
</svg>
